<svg xmlns="http://www.w3.org/2000/svg" viewBox="0 0 64 64">
  <defs>
    <linearGradient id="gold" x1="0%" y1="0%" x2="100%" y2="100%">
      <stop offset="0%" stop-color="#fff5ca"/>
      <stop offset="28%" stop-color="#ebca72"/>
      <stop offset="62%" stop-color="#b98729"/>
      <stop offset="100%" stop-color="#73521a"/>
    </linearGradient>
  </defs>
  <rect width="64" height="64" rx="10" fill="#f7f7f7"/>
  <g transform="translate(8 5)">
    <path fill="url(#gold)" d="M1 28 11 4h11l10 24h-7l-3-7H13l-3 7H1zm15-17-4 5 6 5 3-8-5-2z"/>
    <path fill="#7b571b" d="M12 21h9l-3-8-6 8z" opacity="0.9"/>
    <path fill="url(#gold)" d="M23 5h24v6h-8v17h-7V11h-9z"/>
    <path fill="#f9e4a7" d="M19 15 28 10 39 10 31 15z" opacity="0.8"/>
    <path d="M17 17 27 7" stroke="#a87722" stroke-width="3.4" stroke-linecap="round"/>
    <text x="24" y="41" font-family="Georgia, 'Times New Roman', serif" font-size="10" font-weight="700" text-anchor="middle" letter-spacing="1.5" fill="#c29b48">AURYX</text>
    <text x="24" y="50" font-family="Georgia, 'Times New Roman', serif" font-size="6.5" font-weight="700" text-anchor="middle" letter-spacing="1.2" fill="#b38a35">TECH</text>
  </g>
</svg>